<?xml version="1.0" encoding="UTF-8"?>
<svg id="Layer_1" data-name="Layer 1" xmlns="http://www.w3.org/2000/svg" xmlns:xlink="http://www.w3.org/1999/xlink" viewBox="0 0 313 675">
  <defs>
    <style>
      .cls-1 {
        fill: url(#linear-gradient);
      }

      .cls-1, .cls-2, .cls-3, .cls-4, .cls-5, .cls-6 {
        stroke-width: 0px;
      }

      .cls-2 {
        fill: url(#linear-gradient-5);
      }

      .cls-3 {
        fill: none;
      }

      .cls-4 {
        fill: url(#linear-gradient-2);
      }

      .cls-5 {
        fill: url(#linear-gradient-3);
      }

      .cls-7 {
        clip-path: url(#clippath);
      }

      .cls-6 {
        fill: url(#linear-gradient-4);
      }
    </style>
    <linearGradient id="linear-gradient" x1="157.02" y1="675.17" x2="157.02" y2="-.23" gradientUnits="userSpaceOnUse">
      <stop offset="0" stop-color="#b5b3fd"/>
      <stop offset="1" stop-color="#5d4eff"/>
    </linearGradient>
    <clipPath id="clippath">
      <rect class="cls-3" x="1" y="0" width="312" height="675"/>
    </clipPath>
    <linearGradient id="linear-gradient-2" x1="601.99" y1="108.41" x2="259.86" y2="204.41" gradientTransform="translate(-20.04 258.81) rotate(-34.17)" xlink:href="#linear-gradient"/>
    <linearGradient id="linear-gradient-3" x1="120.9" y1="63.51" x2="78.01" y2="-26.36" gradientTransform="translate(38.91 7.29) rotate(-20.12)" xlink:href="#linear-gradient"/>
    <linearGradient id="linear-gradient-4" x1="-210.41" y1="301.1" x2="45.93" y2="482.89" gradientTransform="translate(95.86 31.84) rotate(14.41)" xlink:href="#linear-gradient"/>
    <linearGradient id="linear-gradient-5" x1="219" y1="723.43" x2="246.58" y2="564.11" gradientTransform="translate(275.23 -29.15) rotate(20.81)" xlink:href="#linear-gradient"/>
  </defs>
  <g>
    <rect id="Rectangle_1-3" data-name="Rectangle 1-3" class="cls-1" x="1.04" y="-.23" width="311.96" height="675.4"/>
    <rect id="Rectangle_1-2" data-name="Rectangle 1-2" class="cls-1" x="1.04" y="-.23" width="311.96" height="675.4"/>
  </g>
  <g class="cls-7">
    <g>
      <rect class="cls-4" x="301" y="33" width="220" height="258" rx="34.1" ry="34.1" transform="translate(161.94 -202.88) rotate(34.17)"/>
      <rect class="cls-5" x="-70" y="-235" width="220" height="258" rx="34.1" ry="34.1" transform="translate(-34.03 -20.23) rotate(20.12)"/>
      <rect class="cls-6" x="-188" y="266" width="220" height="258" rx="34.1" ry="34.1" transform="translate(-100.77 -6.98) rotate(-14.41)"/>
      <rect class="cls-2" x="107" y="606" width="220" height="258" rx="34.1" ry="34.1" transform="translate(-246.93 125.01) rotate(-20.81)"/>
    </g>
  </g>
</svg>