<?xml version="1.0" encoding="UTF-8"?>
<svg id="Layer_1" data-name="Layer 1" xmlns="http://www.w3.org/2000/svg" viewBox="0 0 30.01 30.01">
  <defs>
    <style>
      .cls-1 {
        fill: #5d4eff;
        stroke-width: 0px;
      }
    </style>
  </defs>
  <g id="_1" data-name=" 1">
    <path id="lens_aperture_camera_focus" data-name="lens aperture camera focus" class="cls-1" d="M29.49,11.11C27.34,3.11,19.11-1.63,11.11.52,3.11,2.67-1.63,10.89.52,18.89c2.15,8,10.38,12.74,18.38,10.6,3.84-1.03,7.12-3.55,9.11-7,2-3.44,2.53-7.54,1.49-11.38ZM27.56,11.63c.24.91.39,1.85.44,2.79l-5,2.88V4.76c2.23,1.73,3.83,4.14,4.56,6.87ZM9,18.45v-6.92l6-3.47,6,3.47v6.92l-6,3.47-6-3.47ZM21,3.45v5.75L10.13,2.99c1.55-.64,3.2-.98,4.87-1,2.09,0,4.15.5,6,1.48v-.02ZM8,4.04l5,2.87L2.13,13.18c.51-3.77,2.66-7.11,5.87-9.14ZM2,15.55l5-2.87v12.54c-3-2.34-4.83-5.87-5-9.67ZM9,26.55v-5.79l10.86,6.23c-3.52,1.44-7.49,1.26-10.86-.49v.05ZM22,25.99l-5-2.88,10.88-6.32c-.51,3.78-2.66,7.14-5.88,9.2Z"/>
  </g>
</svg>