<?xml version="1.0" encoding="UTF-8"?>
<svg id="Layer_1" data-name="Layer 1" xmlns="http://www.w3.org/2000/svg" viewBox="0 0 36.02 36.02">
  <defs>
    <style>
      .cls-1 {
        fill: #594bfd;
        stroke-width: 0px;
      }

      .cls-2 {
        fill: none;
        stroke: #594bfd;
        stroke-miterlimit: 10;
      }
    </style>
  </defs>
  <path class="cls-1" d="M8.01,13.01c0-1.1.9-2,2-2h3l2-2h6l2,2h3c1.1,0,2,.9,2,2v10c0,1.1-.9,2-2,2H10.01c-1.1,0-2-.9-2-2v-10ZM18.01,23.01c2.76,0,5-2.24,5-5s-2.24-5-5-5-5,2.24-5,5,2.24,5,5,5ZM18.01,21.01c-1.66,0-3-1.34-3-3s1.34-3,3-3,3,1.34,3,3-1.34,3-3,3Z"/>
  <circle class="cls-2" cx="18.01" cy="18.01" r="17.51"/>
  <line class="cls-2" x1="30.89" y1="6.14" x2="4.61" y2="29.28"/>
</svg>